<svg width="873" height="500" viewBox="0 0 873 500" fill="none" xmlns="http://www.w3.org/2000/svg">
<path d="M0 170.477V68.1039C0 18.7249 37.1644 0.289062 85.8974 0.289062C134.197 0.289062 172.228 18.7249 172.228 68.1039V170.477C172.228 219.856 134.197 238.292 85.8974 238.292C37.2367 238.292 0 219.928 0 170.477ZM150.899 68.1039C150.899 32.2445 126.532 15.7607 85.8974 15.7607C45.2624 15.7607 21.3298 32.2445 21.3298 68.1039V170.477C21.3298 206.336 45.2624 222.82 85.8974 222.82C126.532 222.82 150.899 206.336 150.899 170.477V68.1039Z" fill="#333333"/>
<path d="M383.936 224.411L258.199 38.3897V229.255C258.199 234.099 253.065 236.34 247.498 236.34C242.364 236.34 236.797 234.099 236.797 229.255V7.08501C236.797 1.9519 241.93 0.289062 247.498 0.289062C255.162 0.289062 261.163 8.02487 264.996 13.5195L388.563 197.95V7.08501C388.563 2.24109 394.131 0.289062 399.264 0.289062C404.832 0.289062 409.965 2.24109 409.965 7.08501V229.255C409.965 234.099 404.832 236.34 399.264 236.34C392.902 236.412 387.768 229.905 383.936 224.411Z" fill="#333333"/>
<path d="M624.563 224.411L498.898 38.3897V229.255C498.898 234.099 493.764 236.34 488.197 236.34C483.063 236.34 477.496 234.099 477.496 229.255V7.08501C477.496 1.9519 482.63 0.289062 488.197 0.289062C495.861 0.289062 501.863 8.02487 505.695 13.5195L629.262 197.95V7.08501C629.262 2.24109 634.83 0.289062 639.963 0.289062C645.531 0.289062 650.665 2.24109 650.665 7.08501V229.255C650.665 234.099 645.531 236.34 639.963 236.34C633.528 236.412 628.395 229.905 624.563 224.411Z" fill="#333333"/>
<path d="M783.633 133.389L720.367 225.784C717.402 230.339 713.932 236.774 707.569 236.774C702.002 236.774 695.566 233.231 695.566 228.676C695.566 227.375 696.434 226.074 697.302 224.483L770.835 118.206L698.603 12.9412C696.868 10.7 696 8.74797 696 6.79595C696 2.6027 701.134 0 708.003 0C714.004 0 718.27 6.14527 721.668 11.2784L783.633 102.662L846.031 11.2784C849.43 6.79595 853.334 0 859.697 0C866.566 0 871.699 2.6027 871.699 6.79595C871.699 8.74797 870.832 10.7 869.096 12.9412L796.431 118.206L870.398 224.483C871.266 226.074 872.133 227.375 872.133 228.676C872.133 233.231 866.132 236.774 860.131 236.774C853.696 236.774 850.297 230.339 847.333 225.784L783.633 133.389Z" fill="#333333"/>
<path d="M97.9711 365.898C97.9711 349.414 93.2713 337.34 83.9441 329.966C74.6169 322.591 62.3252 318.904 47.3582 318.904H6.50637C3.39729 319.266 1.87891 320.784 1.87891 323.387V493.575C1.87891 496.683 3.46961 498.274 6.57869 498.274C9.68776 498.274 11.2785 496.683 11.2785 493.575V413.108H46.9967L86.0409 489.237L86.1132 489.381H86.1855C86.2578 489.454 86.5471 489.815 87.1978 491.116L88.2101 493.864C88.5716 494.37 89.0054 495.02 89.5838 495.816C90.1622 496.683 90.813 497.262 91.3914 497.623C91.9698 497.985 92.6929 498.129 93.3437 498.129C94.7174 498.129 95.8743 497.696 96.742 496.828C97.6096 495.96 98.0434 494.804 98.0434 493.43C98.0434 492.562 97.7542 491.623 97.2481 490.61L57.1193 412.529C84.2333 409.204 97.9711 393.515 97.9711 365.898ZM88.5716 365.898C88.5716 378.766 84.8841 388.382 77.5814 394.527C70.2786 400.673 60.0837 403.781 47.3582 403.781H11.2061V328.303H47.3582C60.0837 328.303 70.2786 331.339 77.5814 337.412C84.8841 343.413 88.5716 352.956 88.5716 365.898Z" fill="#333333"/>
<path d="M226.529 318.904C223.42 318.904 221.829 320.423 221.829 323.387V449.039C221.829 462.776 218.431 473.187 211.779 479.983C205.127 486.851 195.439 490.249 183.002 490.249C170.566 490.249 160.949 486.779 154.37 479.983C147.79 473.114 144.392 462.704 144.392 449.039V323.314C144.392 320.35 142.801 318.832 139.692 318.832C136.583 318.832 134.992 320.35 134.992 323.314V448.967C134.992 466.391 139.403 479.332 148.007 487.429C156.683 495.527 168.397 499.575 182.93 499.575C197.463 499.575 209.249 495.454 217.997 487.429C226.746 479.332 231.157 466.391 231.157 448.967V323.314C231.229 320.35 229.638 318.904 226.529 318.904Z" fill="#333333"/>
<path d="M371.496 318.904C368.387 318.904 366.796 320.423 366.796 323.387V474.922L292.54 327.869C289.214 321.868 286.611 318.904 284.731 318.904C281.622 318.904 280.031 320.423 280.031 323.387V493.575C280.031 496.683 281.622 498.274 284.731 498.274C287.84 498.274 289.431 496.683 289.431 493.575V341.895L364.193 489.237C367.23 495.237 369.616 498.202 371.568 498.202C374.677 498.202 376.268 496.611 376.268 493.502V323.314C376.196 320.35 374.677 318.904 371.496 318.904Z" fill="#333333"/>
<path d="M509.454 318.904H413.868C412.494 318.904 411.337 319.41 410.47 320.35C409.602 321.29 409.168 322.375 409.168 323.604C409.168 324.833 409.602 325.917 410.47 326.857C411.337 327.797 412.494 328.303 413.868 328.303H457.106V493.502C457.106 496.611 458.696 498.202 461.805 498.202C464.914 498.202 466.505 496.611 466.505 493.502V328.303H509.526C512.635 328.303 514.226 326.64 514.226 323.387C514.154 320.35 512.563 318.904 509.454 318.904Z" fill="#333333"/>
<path d="M551.751 318.904C548.641 318.904 547.051 320.423 547.051 323.387V493.575C547.051 496.683 548.641 498.274 551.751 498.274C554.86 498.274 556.45 496.683 556.45 493.575V323.314C556.45 320.35 554.86 318.904 551.751 318.904Z" fill="#333333"/>
<path d="M721.159 318.904C719.207 318.904 716.676 321.868 713.35 327.869L665.919 420.771L618.704 327.869C615.378 321.868 612.775 318.904 610.895 318.904C607.786 318.904 606.195 320.423 606.195 323.387V493.575C606.195 496.683 607.786 498.274 610.895 498.274C614.004 498.274 615.595 496.683 615.595 493.575V341.895L661.002 429.808C662.52 433.062 664.111 434.652 665.919 434.652C667.509 434.652 669.1 433.062 670.835 429.881L716.459 341.967V493.575C716.459 496.683 718.05 498.274 721.159 498.274C724.268 498.274 725.859 496.683 725.859 493.575V323.314C725.859 320.35 724.268 318.904 721.159 318.904Z" fill="#333333"/>
<path d="M867.434 488.803H785.079V413.108H823.907C826.871 413.108 828.389 411.589 828.389 408.625C828.389 405.372 826.871 403.709 823.907 403.709H785.079V328.303H867.434C870.398 328.303 871.916 326.64 871.916 323.387C871.916 320.495 870.398 318.904 867.434 318.904H780.38C777.27 318.904 775.68 320.495 775.68 323.604V493.502C775.68 496.611 777.27 498.202 780.38 498.202H867.434C870.398 498.202 871.916 496.683 871.916 493.719C871.844 490.466 870.326 488.803 867.434 488.803Z" fill="#333333"/>
</svg>
