<svg width="597" height="593" viewBox="0 0 597 593" fill="none" xmlns="http://www.w3.org/2000/svg">
<path d="M437.115 142.476L301.328 294.228V6.70117L437.115 142.476Z" fill="white"/>
<path d="M437.115 142.475L349.555 239.353L301.328 142.475" fill="#D1D1D1"/>
<path d="M301.328 6.70117L437.043 142.475H301.328C301.328 142.475 301.328 7.56874 301.328 6.70117Z" fill="#B2B2B2"/>
<path d="M195.982 118.111L298.437 294.083L24.9102 205.23L195.982 118.111Z" fill="white"/>
<path d="M195.983 118.111L261.129 231.257L154.047 247.162" fill="#D1D1D1"/>
<path d="M24.9102 205.23L195.982 118.111L154.045 247.162C154.045 247.162 25.7778 205.519 24.9102 205.23Z" fill="#B2B2B2"/>
<path d="M98.2969 339.777L297.35 296.832L128.303 529.412L98.2969 339.777Z" fill="white"/>
<path d="M98.2969 339.777L226.058 312.811L208.127 419.594" fill="#D1D1D1"/>
<path d="M128.303 529.413L98.2969 339.777L208.127 419.521C208.127 419.594 128.882 528.69 128.303 529.413Z" fill="#B2B2B2"/>
<path d="M279.059 501.216L299.665 298.639L468.64 531.291L279.059 501.216Z" fill="white"/>
<path d="M279.059 501.215L292.869 371.369L388.816 421.399" fill="#D1D1D1"/>
<path d="M468.638 531.292L278.984 501.217L388.814 421.473C388.814 421.4 468.132 530.569 468.638 531.292Z" fill="#B2B2B2"/>
<path d="M488.38 379.251L302.125 297.049L575.579 208.195L488.38 379.251Z" fill="white"/>
<path d="M488.382 379.25L369.152 325.967L446.445 250.127" fill="#D1D1D1"/>
<path d="M575.581 208.195L488.382 379.251L446.445 250.2C446.445 250.128 574.713 208.485 575.581 208.195Z" fill="#B2B2B2"/>
<path d="M577.24 205.375C576.3 204.291 574.854 203.857 573.481 204.291L573.336 204.363L309.715 290.035L438.923 145.585C438.923 145.585 438.923 145.585 438.923 145.513C439.067 145.368 439.212 145.224 439.284 145.007C439.284 145.007 439.284 144.934 439.356 144.934C439.429 144.79 439.501 144.718 439.573 144.573V144.501C439.573 144.428 439.646 144.356 439.646 144.284C439.718 144.139 439.718 143.995 439.718 143.922C439.718 143.85 439.718 143.778 439.718 143.705C439.718 143.561 439.718 143.416 439.718 143.272C439.718 143.199 439.718 143.199 439.718 143.127C439.718 142.91 439.718 142.766 439.646 142.549C439.646 142.476 439.646 142.476 439.573 142.404C439.501 142.259 439.501 142.115 439.429 141.97C439.429 141.898 439.356 141.826 439.356 141.753C439.284 141.609 439.212 141.536 439.14 141.392C439.14 141.32 439.067 141.247 439.067 141.247C438.923 141.103 438.85 140.886 438.706 140.741L302.991 5.03919C301.979 4.02703 300.46 3.73784 299.159 4.24392C297.857 4.8223 296.99 6.05135 296.99 7.4973V7.64189V284.83L199.596 117.317C199.596 117.317 199.596 117.317 199.596 117.245C199.524 117.1 199.379 116.883 199.234 116.739L199.162 116.666C199.09 116.594 198.945 116.449 198.873 116.377C198.873 116.377 198.801 116.377 198.801 116.305C198.728 116.232 198.656 116.232 198.656 116.16C198.511 116.088 198.439 116.016 198.294 115.943C198.222 115.943 198.15 115.871 198.078 115.871C197.933 115.799 197.788 115.726 197.644 115.726C197.571 115.726 197.571 115.726 197.499 115.654C197.282 115.582 197.138 115.582 196.921 115.509C196.848 115.509 196.848 115.509 196.776 115.509C196.631 115.509 196.487 115.509 196.342 115.509C196.27 115.509 196.198 115.509 196.125 115.509C195.981 115.509 195.836 115.582 195.691 115.582C195.619 115.582 195.547 115.582 195.475 115.654C195.258 115.726 195.113 115.799 194.896 115.871L23.8968 203.134C22.6677 203.784 21.8723 205.086 22.0169 206.532C22.1615 207.978 23.1015 209.134 24.403 209.568L24.5476 209.641L288.168 295.313L98.7316 336.233C98.7316 336.233 98.7316 336.233 98.6593 336.233C98.4424 336.305 98.2978 336.305 98.0809 336.45C98.0809 336.45 98.0086 336.45 98.0086 336.522C97.864 336.595 97.7917 336.667 97.6471 336.739L97.5748 336.812C97.5025 336.884 97.4302 336.884 97.4302 336.956C97.3578 337.028 97.2132 337.101 97.1409 337.245C97.0686 337.318 97.0686 337.318 96.9963 337.39C96.924 337.462 96.7794 337.607 96.7071 337.751C96.7071 337.824 96.6348 337.824 96.6348 337.896C96.4902 338.041 96.4179 338.257 96.3456 338.402C96.3456 338.474 96.3456 338.474 96.2733 338.547C96.201 338.691 96.201 338.836 96.1287 338.98C96.1287 339.053 96.1287 339.125 96.0564 339.197C96.0564 339.342 95.9841 339.486 95.9841 339.631C95.9841 339.703 95.9841 339.776 95.9841 339.848C95.9841 340.065 95.9841 340.282 96.0564 340.499L126.063 530.134C126.28 531.508 127.292 532.665 128.738 533.026C130.112 533.388 131.558 532.809 132.425 531.653L132.498 531.508L295.327 306.953L275.732 499.697C275.732 499.697 275.732 499.697 275.732 499.77C275.732 499.986 275.732 500.203 275.732 500.42V500.493C275.732 500.637 275.732 500.782 275.804 500.926V500.999C275.804 501.071 275.877 501.143 275.877 501.216C275.949 501.36 275.949 501.432 276.021 501.577C276.021 501.649 276.094 501.722 276.094 501.794C276.166 501.938 276.238 502.083 276.311 502.155C276.311 502.228 276.383 502.228 276.383 502.3C276.528 502.445 276.672 502.589 276.817 502.734L276.889 502.806C277.034 502.878 277.106 503.023 277.251 503.095C277.323 503.168 277.395 503.168 277.395 503.168C277.54 503.24 277.612 503.312 277.757 503.312C277.829 503.312 277.901 503.384 277.974 503.384C278.191 503.457 278.335 503.529 278.552 503.529L468.206 533.605C469.58 533.822 471.026 533.171 471.749 531.942C472.472 530.713 472.399 529.195 471.604 528.038L471.532 527.893L308.631 303.699L485.92 381.925C485.92 381.925 485.92 381.925 485.993 381.925C486.21 381.997 486.354 382.07 486.571 382.142H486.643C486.788 382.142 486.933 382.214 487.077 382.214H487.149C487.222 382.214 487.294 382.214 487.366 382.214C487.511 382.214 487.656 382.214 487.8 382.214C487.873 382.214 487.945 382.214 488.017 382.214C488.162 382.214 488.306 382.142 488.451 382.07C488.523 382.07 488.523 382.07 488.596 381.997C488.813 381.925 488.957 381.853 489.102 381.78C489.174 381.78 489.174 381.708 489.246 381.708C489.391 381.636 489.536 381.564 489.608 381.419C489.68 381.347 489.68 381.347 489.752 381.274C489.825 381.202 489.969 381.057 490.042 380.985C490.114 380.913 490.114 380.913 490.186 380.841C490.331 380.696 490.403 380.479 490.548 380.334L577.747 209.279C578.325 207.978 578.108 206.459 577.24 205.375ZM349.627 234.005L306.172 146.814H428.366L349.627 234.005ZM424.462 136.476L427.788 139.801H304.003C304.003 122.089 304.003 42.3446 304.003 16.0284L424.462 136.476ZM304.003 158.165L344.855 240.222L304.003 285.842V158.165ZM34.5978 205.52L186.437 128.161L190.63 126.065L152.309 243.765C135.534 238.27 59.6151 213.689 34.5978 205.52ZM197.427 127.728L256.065 229.595L159.684 243.909L197.427 127.728ZM260.476 235.957L291.278 288.878L169.807 249.404L260.476 235.957ZM131.63 520.302L105.022 351.994L104.299 347.367L204.368 420.17C193.956 434.485 147.103 499.047 131.63 520.302ZM107.914 341.439L222.95 317.147L206.826 413.23L107.914 341.439ZM215.214 405.277L230.397 314.905L290.265 301.964L215.214 405.277ZM461.048 525.363L292.724 498.685L288.096 497.962L388.237 425.231C398.649 439.474 445.502 504.035 461.048 525.363ZM283.541 492.612L295.977 375.707L382.381 420.749L283.541 492.612ZM296.194 367.899L302.412 306.953L377.464 410.266L296.194 367.899ZM310.872 297.048L432.343 257.574L366.908 321.774L310.872 297.048ZM374.283 324.376L443.839 256.128L481.582 372.309L374.283 324.376ZM490.186 365.441L488.089 369.634L449.841 251.934C466.687 246.44 542.534 221.786 567.624 213.689L490.186 365.441Z" fill="#333333"/>
</svg>
